<svg xmlns="http://www.w3.org/2000/svg" version="1.1" xmlns:xlink="http://www.w3.org/1999/xlink" xmlns:svgjs="http://svgjs.dev/svgjs" width="2000" height="1500" viewBox="0 0 2000 1500"><rect width="2000" height="1500" fill="#cd1a2f"></rect><g transform="matrix(0.75,0,0,0.75,249.090909090909,282.7536437246963)"><svg viewBox="0 0 396 247" data-background-color="#cd1a2f" preserveAspectRatio="xMidYMid meet" height="1247" width="2000" xmlns="http://www.w3.org/2000/svg" xmlns:xlink="http://www.w3.org/1999/xlink"><g id="tight-bounds" transform="matrix(1,0,0,1,0.2400000000000091,-0.09999999999999432)"><svg viewBox="0 0 395.52 247.2" height="247.2" width="395.52"><g><svg></svg></g><g><svg viewBox="0 0 395.52 247.2" height="247.2" width="395.52"><g transform="matrix(1,0,0,1,101.72855521064301,47.215199999999996)"><svg viewBox="0 0 192.06288957871396 152.7696" height="152.7696" width="192.06288957871396"><g><svg viewBox="0 0 192.06288957871396 152.7696" height="152.7696" width="192.06288957871396"><g><svg viewBox="0 0 192.06288957871396 152.7696" height="152.7696" width="192.06288957871396"><g><svg viewBox="0 0 192.06288957871396 152.7696" height="152.7696" width="192.06288957871396"><g id="textblocktransform"><svg viewBox="0 0 192.06288957871396 152.7696" height="152.7696" width="192.06288957871396" id="textblock"><g><svg viewBox="0 0 192.06288957871396 152.7696" height="152.7696" width="192.06288957871396"><g transform="matrix(1,0,0,1,0,0)"><svg width="192.06288957871396" viewBox="-4.45 -40.35 57.7 46.1" height="152.7696" data-palette-color="#bfc5b7"><path d="M23.45 1.4Q21.45 1.75 20.25 1.75L20.25 1.75Q17.95 1.75 15.75 1.25L15.75 1.25Q15.55 0.65 15.4 0.5 15.25 0.35 15.05 0.33 14.85 0.3 14.75 0.25L14.75 0.25Q14.35-1 13.65-3.8L13.65-3.8Q13.25-5.45 12.98-6.2 12.7-6.95 12.4-6.95L12.4-6.95Q12-6.95 11.73-6.93 11.45-6.9 11-6.9L11-6.9Q10.65-5.95 10.3-3.85L10.3-3.85Q9.9-1.9 9.6-0.75 9.3 0.4 8.75 1.45L8.75 1.45Q8.6 1.45 8.33 1.5 8.05 1.55 7.65 1.55L7.65 1.55Q7.1 1.5 5.35 1.5L5.35 1.5 3.2 1.45 0.55 1.4 0.7 0.4-0.45 0.4 0.25-3.3Q1.65-11.4 3.3-19.28 4.95-27.15 7.45-35.45L7.45-35.45Q8.35-35.55 8.5-35.55L8.5-35.55Q8.7-35.55 9.8-35.5 10.9-35.45 14.4-35.8L14.4-35.8Q14.6-34.95 14.65-34.7L14.65-34.7 15.4-34.8Q15.85-32.25 18.55-21L18.55-21Q19.55-16.9 19.6-16.65L19.6-16.65 23.45 1.4ZM18.1-17.55L14-35.25Q11.8-35.05 9.65-35.05L9.65-35.05 8.6-35.05Q8-35.05 7.85-35L7.85-35Q5.45-26.95 3.88-19.35 2.3-11.75 0.75-3.15L0.75-3.15Q0.6-2.2 0.45-1.38 0.3-0.55 0.2-0.1L0.2-0.1 0.3-0.05 1.5-0.05 5.45 0Q5.95 0.05 6.65 0.05L6.65 0.05Q7.2 0.05 7.3 0L7.3 0 7.45-0.05Q7.9-0.8 8.15-1.85 8.4-2.9 8.7-4.65L8.7-4.65Q9.2-7.45 9.65-8.4L9.65-8.4Q10.2-8.4 10.55-8.43 10.9-8.45 11.1-8.45L11.1-8.45 11.75-8.45 12.75-8.35Q13.15-7.45 13.58-5.85 14-4.25 14.1-3.85L14.1-3.85Q14.6-1.5 15.1-0.2L15.1-0.2 15.15-0.2Q17.1 0.25 19.25 0.25L19.25 0.25Q20.5 0.25 21.85 0L21.85 0 21.85-0.05 18.1-17.55ZM10.5-14.25L9.3-14.3Q9.9-18.75 9.85-18.35L9.85-18.35Q10.25-21.7 10.53-23.23 10.8-24.75 11.1-24.75L11.1-24.75Q11.45-24.75 11.88-22.4 12.3-20.05 13-14.3L13-14.3 10.5-14.25ZM12.4-14.8L11.75-20.5 10.95-14.8 12.4-14.8ZM22.75-35.35Q26.35-35.85 28.47-36.1 30.6-36.35 32.85-36.35L32.85-36.35Q36.9-36.35 39.82-35.4 42.75-34.45 44.75-32.15L44.75-32.15Q48.35-27.7 48.35-23.9L48.35-23.9Q48.35-21.75 47.4-19.53 46.45-17.3 44.65-15.7 42.85-14.1 40.4-13.85L40.4-13.85Q41.3-12.25 43.55-8.95L43.55-8.95Q45.55-6.05 46.8-3.9 48.05-1.75 48.95 0.7L48.95 0.7 49.25 1.35 48.55 1.35Q47.75 1.35 45.85 1.45L45.85 1.45Q43.65 1.55 42.5 1.55L42.5 1.55Q41.45 1.55 39.85 1.45L39.85 1.45Q39.75 1.3 39.65 1.03 39.55 0.75 39.37 0.6 39.2 0.45 38.85 0.45L38.85 0.45Q36.25-5.7 33.5-9.95L33.5-9.95 33.5-8.65Q33.5-7.25 33.75-2.75L33.75-2.75Q33.9-0.65 33.9 0.75L33.9 0.75Q32.85 1.25 31.57 1.4 30.3 1.55 28.55 1.55L28.55 1.55 26.35 1.5 23.45 1.5Q23.4 0.5 23.4-0.65L23.4-0.65 23.35-5.2 23.35-9.25Q23.35-17.05 23.17-25.25 23-33.45 22.75-35.35L22.75-35.35ZM38.6-15.25L38.85-15.3Q41.4-15.5 43.2-16.98 45-18.45 45.9-20.6 46.8-22.75 46.8-24.9L46.8-24.9Q46.8-27.55 45.47-30 44.15-32.45 41.77-34 39.4-35.55 36.5-35.65L36.5-35.65Q34.85-35.85 32.8-35.85L32.8-35.85Q30.55-35.85 28.57-35.63 26.6-35.4 23.35-34.95L23.35-34.95Q23.6-33.5 23.75-26.05 23.9-18.6 23.9-10.15L23.9-10.15 23.9-5Q23.9-2.6 23.85-1.65L23.85-1.65 23.85-0.1Q24-0.05 24.2-0.05L24.2-0.05Q24.85-0.05 25.25 0L25.25 0 27.25 0.05Q29.1 0.05 30.35-0.08 31.6-0.2 32.4-0.55L32.4-0.55Q32-5.5 32-9.6L32-9.6Q32-11.5 32.15-12.75L32.15-12.75 32.25-12.6Q34.15-10.3 36-6.78 37.85-3.25 39.2-0.05L39.2-0.05 39.25-0.05Q40.95 0.05 41.85 0.05L41.85 0.05Q42.95 0.05 44.95-0.05L44.95-0.05Q46.75-0.15 47.5-0.15L47.5-0.15Q46.6-2.55 45.25-4.83 43.9-7.1 41.95-9.95L41.95-9.95Q41.45-10.75 40.37-12.38 39.3-14 38.6-15.25L38.6-15.25ZM34.2-28.75Q35.9-28.75 37-27.73 38.1-26.7 38.1-24.95L38.1-24.95Q38.1-23.15 37.07-22.4 36.05-21.65 33.75-21.65L33.75-21.65Q32.2-21.65 30.95-21.8L30.95-21.8 30.9-21.8Q30.75-22.65 30.75-25.3L30.75-25.3 30.65-27.95Q32.45-28.75 34.2-28.75L34.2-28.75ZM35.2-27.25Q33.8-27.25 32.15-26.6L32.15-26.6Q32.25-25.3 32.25-24.3L32.25-24.3 32.2-22.85 32.25-22.15 33.75-22.15Q34.9-22.15 35.95-22.3L35.95-22.3 35.9-22.3Q36.75-22.5 37.2-23.23 37.65-23.95 37.65-24.95L37.65-24.95Q37.65-27.25 35.2-27.25L35.2-27.25Z" opacity="1" transform="matrix(1,0,0,1,0,0)" fill="#bfc5b7" class="wordmark-text-0" data-fill-palette-color="primary" id="text-0"></path></svg></g></svg></g></svg></g></svg></g></svg></g></svg></g></svg></g><g><path d="M0 123.6c0-68.262 55.338-123.6 123.6-123.6 31.93 0 61.032 12.107 82.965 31.981l-8.943 0c-20.226-16.362-45.98-26.162-74.022-26.162-65.048 0-117.781 52.732-117.781 117.781 0 65.048 52.732 117.781 117.781 117.781 28.042 0 53.796-9.8 74.022-26.162h8.943c-21.934 19.874-51.036 31.981-82.965 31.981-68.262 0-123.6-55.338-123.6-123.6z" fill="#bfc5b7" stroke="transparent" data-fill-palette-color="tertiary"></path></g></svg></g><defs></defs></svg><rect width="395.52" height="247.2" fill="none" stroke="none" visibility="hidden"></rect></g></svg></g></svg>